<svg width="1440" height="1024" viewBox="0 0 1440 1024" fill="none" xmlns="http://www.w3.org/2000/svg">
<rect width="1440" height="1024" fill="white"/>
<rect width="1440" height="1024" fill="#F8F8FF"/>
<g clip-path="url(#clip0_0_1)">
<path d="M1113.38 569.258H538.805C536.366 569.258 534.026 570.227 532.301 571.952C530.576 573.677 529.607 576.017 529.607 578.457C529.607 580.896 530.576 583.236 532.301 584.961C534.026 586.686 536.366 587.655 538.805 587.655H555.08V807.721C555.08 810.161 556.05 812.5 557.775 814.225C559.5 815.951 561.84 816.92 564.279 816.92C566.719 816.92 569.059 815.951 570.784 814.225C572.509 812.5 573.478 810.161 573.478 807.721L573.618 587.655H1034.77L1077.29 807.721C1077.29 810.161 1078.26 812.5 1079.99 814.225C1081.71 815.951 1084.05 816.92 1086.49 816.92C1088.93 816.92 1091.27 815.951 1093 814.225C1094.72 812.5 1095.69 810.161 1095.69 807.721L1098.37 587.655H1113.38C1115.82 587.655 1118.16 586.686 1119.89 584.961C1121.61 583.236 1122.58 580.896 1122.58 578.457C1122.58 576.017 1121.61 573.677 1119.89 571.952C1118.16 570.227 1115.82 569.258 1113.38 569.258V569.258Z" fill="#CCCCCC"/>
<path d="M638.401 528.269V567.223H540.804C538.247 567.312 535.696 566.897 533.299 566C530.902 565.104 528.705 563.744 526.833 561.998C524.962 560.252 523.452 558.155 522.391 555.826C521.33 553.497 520.738 550.982 520.649 548.424C520.56 545.866 520.976 543.316 521.873 540.918C522.769 538.521 524.129 536.324 525.875 534.453C527.621 532.581 529.718 531.072 532.047 530.011C534.376 528.95 536.891 528.358 539.449 528.269C539.901 528.253 540.352 528.253 540.804 528.269L638.401 528.269Z" fill="#F2F2F2"/>
<path d="M640.798 566.924C640.798 567.321 640.64 567.702 640.359 567.983C640.078 568.264 639.697 568.422 639.3 568.422H539.066C533.625 568.418 528.408 566.254 524.561 562.405C520.715 558.556 518.554 553.337 518.554 547.896C518.554 542.455 520.715 537.236 524.561 533.387C528.408 529.538 533.625 527.374 539.066 527.37H639.3C639.497 527.369 639.692 527.408 639.874 527.483C640.056 527.558 640.222 527.668 640.362 527.807C640.501 527.946 640.612 528.112 640.687 528.294C640.763 528.476 640.802 528.671 640.802 528.868C640.802 529.065 640.763 529.26 640.687 529.442C640.612 529.624 640.501 529.79 640.362 529.929C640.222 530.068 640.056 530.178 639.874 530.253C639.692 530.328 639.497 530.367 639.3 530.366H539.066C534.422 530.373 529.97 532.223 526.688 535.51C523.406 538.797 521.563 543.251 521.563 547.896C521.563 552.54 523.406 556.995 526.688 560.282C529.97 563.569 534.422 565.419 539.066 565.426H639.3C639.697 565.426 640.078 565.584 640.359 565.865C640.64 566.146 640.798 566.527 640.798 566.924V566.924Z" fill="#0D6EFD"/>
<path d="M638.401 537.258H533.522C533.443 537.259 533.367 537.228 533.311 537.172C533.254 537.116 533.222 537.041 533.221 536.961C533.22 536.882 533.251 536.806 533.307 536.749C533.362 536.692 533.438 536.66 533.517 536.659H638.401C638.48 536.66 638.555 536.692 638.61 536.748C638.666 536.804 638.697 536.88 638.697 536.959C638.697 537.038 638.666 537.113 638.61 537.169C638.555 537.226 638.48 537.258 638.401 537.258Z" fill="#CCCCCC"/>
<path d="M638.401 544.45H533.522C533.443 544.45 533.367 544.419 533.311 544.364C533.254 544.308 533.222 544.232 533.221 544.153C533.22 544.074 533.251 543.998 533.307 543.941C533.362 543.884 533.438 543.852 533.517 543.851H638.401C638.48 543.851 638.555 543.883 638.61 543.94C638.666 543.996 638.697 544.071 638.697 544.15C638.697 544.229 638.666 544.305 638.61 544.361C638.555 544.417 638.48 544.449 638.401 544.45Z" fill="#CCCCCC"/>
<path d="M638.401 551.642H533.522C533.443 551.642 533.367 551.611 533.311 551.555C533.254 551.5 533.222 551.424 533.221 551.345C533.22 551.265 533.251 551.189 533.307 551.132C533.362 551.076 533.438 551.043 533.517 551.042H638.401C638.48 551.043 638.555 551.075 638.61 551.131C638.666 551.187 638.697 551.263 638.697 551.342C638.697 551.421 638.666 551.497 638.61 551.553C638.555 551.609 638.48 551.641 638.401 551.642Z" fill="#CCCCCC"/>
<path d="M638.401 558.833H533.522C533.443 558.834 533.367 558.803 533.311 558.747C533.254 558.691 533.222 558.616 533.221 558.536C533.22 558.457 533.251 558.381 533.307 558.324C533.362 558.267 533.438 558.235 533.517 558.234H638.401C638.48 558.235 638.555 558.267 638.61 558.323C638.666 558.379 638.697 558.455 638.697 558.534C638.697 558.612 638.666 558.688 638.61 558.744C638.555 558.8 638.48 558.832 638.401 558.833Z" fill="#CCCCCC"/>
<path d="M620.003 487.228V526.182H522.407C517.241 526.362 512.215 524.482 508.436 520.957C504.656 517.431 502.431 512.548 502.252 507.383C502.072 502.217 503.952 497.191 507.477 493.412C511.003 489.632 515.886 487.407 521.051 487.228C521.503 487.212 521.955 487.212 522.407 487.228H620.003Z" fill="#F2F2F2"/>
<path d="M622.4 525.883C622.4 526.28 622.242 526.661 621.961 526.942C621.68 527.223 621.299 527.381 620.902 527.381H520.668C515.225 527.381 510.004 525.218 506.154 521.369C502.305 517.52 500.142 512.299 500.142 506.855C500.142 501.411 502.305 496.19 506.154 492.341C510.004 488.491 515.225 486.329 520.668 486.329H620.902C621.099 486.329 621.293 486.367 621.475 486.443C621.657 486.518 621.822 486.628 621.961 486.768C622.1 486.907 622.211 487.072 622.286 487.254C622.361 487.435 622.4 487.63 622.4 487.827C622.4 488.024 622.361 488.219 622.286 488.4C622.211 488.582 622.1 488.747 621.961 488.886C621.822 489.026 621.657 489.136 621.475 489.211C621.293 489.286 621.099 489.325 620.902 489.325H520.668C516.019 489.325 511.561 491.172 508.273 494.46C504.986 497.747 503.139 502.206 503.139 506.855C503.139 511.504 504.986 515.963 508.273 519.25C511.561 522.538 516.019 524.384 520.668 524.384H620.902C621.299 524.385 621.68 524.543 621.961 524.823C622.242 525.104 622.4 525.485 622.4 525.883Z" fill="#3F3D56"/>
<path d="M620.003 496.217H515.125C515.045 496.218 514.969 496.187 514.913 496.131C514.856 496.075 514.824 496 514.823 495.92C514.823 495.841 514.853 495.765 514.909 495.708C514.964 495.651 515.04 495.619 515.119 495.618H620.003C620.082 495.619 620.157 495.651 620.213 495.707C620.268 495.763 620.299 495.839 620.299 495.918C620.299 495.996 620.268 496.072 620.213 496.128C620.157 496.184 620.082 496.216 620.003 496.217V496.217Z" fill="#CCCCCC"/>
<path d="M620.003 503.409H515.125C515.045 503.409 514.969 503.378 514.913 503.323C514.856 503.267 514.824 503.191 514.823 503.112C514.823 503.033 514.853 502.956 514.909 502.9C514.964 502.843 515.04 502.811 515.119 502.81H620.003C620.082 502.81 620.157 502.842 620.213 502.898C620.268 502.954 620.299 503.03 620.299 503.109C620.299 503.188 620.268 503.264 620.213 503.32C620.157 503.376 620.082 503.408 620.003 503.409Z" fill="#CCCCCC"/>
<path d="M620.003 510.6H515.125C515.045 510.601 514.969 510.57 514.913 510.514C514.856 510.459 514.824 510.383 514.823 510.304C514.823 510.224 514.853 510.148 514.909 510.091C514.964 510.035 515.04 510.002 515.119 510.001H620.003C620.082 510.002 620.157 510.034 620.213 510.09C620.268 510.146 620.299 510.222 620.299 510.301C620.299 510.38 620.268 510.456 620.213 510.512C620.157 510.568 620.082 510.6 620.003 510.6Z" fill="#CCCCCC"/>
<path d="M620.003 517.792H515.125C515.045 517.792 514.969 517.761 514.913 517.706C514.856 517.65 514.824 517.574 514.823 517.495C514.823 517.416 514.853 517.34 514.909 517.283C514.964 517.226 515.04 517.194 515.119 517.193H620.003C620.082 517.194 620.157 517.225 620.213 517.282C620.268 517.338 620.299 517.413 620.299 517.492C620.299 517.571 620.268 517.647 620.213 517.703C620.157 517.759 620.082 517.791 620.003 517.792V517.792Z" fill="#CCCCCC"/>
<path d="M733.537 707.102V673.137C733.537 671.635 732.94 670.195 731.879 669.134C730.817 668.072 729.377 667.476 727.876 667.476H599.092C597.59 667.476 596.151 668.072 595.089 669.134C594.027 670.195 593.431 671.635 593.431 673.137V707.102H733.537Z" fill="#CCCCCC"/>
<path d="M733.537 719.839H593.431V763.71H733.537V719.839Z" fill="#CCCCCC"/>
<path d="M593.431 776.447V810.412C593.431 811.914 594.027 813.353 595.089 814.415C596.151 815.477 597.59 816.073 599.092 816.073H727.876C729.377 816.073 730.817 815.477 731.879 814.415C732.94 813.353 733.537 811.914 733.537 810.412V776.447H593.431Z" fill="#CCCCCC"/>
<path d="M662.776 692.95C665.121 692.95 667.022 691.049 667.022 688.704C667.022 686.359 665.121 684.458 662.776 684.458C660.432 684.458 658.531 686.359 658.531 688.704C658.531 691.049 660.432 692.95 662.776 692.95Z" fill="white"/>
<path d="M662.776 749.558C665.121 749.558 667.022 747.657 667.022 745.312C667.022 742.968 665.121 741.067 662.776 741.067C660.432 741.067 658.531 742.968 658.531 745.312C658.531 747.657 660.432 749.558 662.776 749.558Z" fill="white"/>
<path d="M663.004 804.968C665.349 804.968 667.249 803.067 667.249 800.722C667.249 798.377 665.349 796.477 663.004 796.477C660.659 796.477 658.758 798.377 658.758 800.722C658.758 803.067 660.659 804.968 663.004 804.968Z" fill="white"/>
<path d="M717.652 628.749V667.704H620.056C614.893 667.88 609.871 665.998 606.094 662.473C602.317 658.948 600.094 654.067 599.915 648.904C599.735 643.741 601.612 638.717 605.135 634.938C608.658 631.158 613.537 628.932 618.7 628.749C619.152 628.733 619.604 628.733 620.056 628.749H717.652Z" fill="#F2F2F2"/>
<path d="M720.05 667.404C720.05 667.801 719.892 668.182 719.611 668.463C719.33 668.744 718.949 668.902 718.552 668.902H618.318C612.875 668.903 607.655 666.743 603.805 662.896C599.955 659.049 597.79 653.831 597.787 648.388C597.784 642.946 599.942 637.725 603.787 633.873C607.633 630.022 612.851 627.855 618.293 627.85H718.552C718.749 627.849 718.944 627.888 719.126 627.963C719.308 628.038 719.474 628.148 719.613 628.287C719.753 628.426 719.864 628.592 719.939 628.774C720.015 628.956 720.054 629.151 720.054 629.348C720.054 629.545 720.015 629.74 719.939 629.922C719.864 630.104 719.753 630.27 719.613 630.409C719.474 630.548 719.308 630.658 719.126 630.733C718.944 630.808 718.749 630.847 718.552 630.846H618.318C613.673 630.852 609.22 632.702 605.938 635.989C602.655 639.276 600.811 643.731 600.811 648.376C600.811 653.021 602.655 657.476 605.938 660.763C609.22 664.05 613.673 665.9 618.318 665.906H718.552C718.949 665.906 719.33 666.064 719.611 666.345C719.892 666.626 720.05 667.007 720.05 667.404V667.404Z" fill="#3F3D56"/>
<path d="M717.652 637.738H612.774C612.695 637.739 612.619 637.708 612.562 637.652C612.506 637.596 612.474 637.521 612.473 637.441C612.472 637.362 612.503 637.286 612.559 637.229C612.614 637.172 612.69 637.14 612.769 637.139H717.653C717.731 637.14 717.807 637.172 717.863 637.228C717.918 637.284 717.949 637.36 717.949 637.439C717.949 637.518 717.918 637.593 717.863 637.649C717.807 637.706 717.731 637.738 717.653 637.738H717.652Z" fill="#CCCCCC"/>
<path d="M717.652 644.93H612.774C612.695 644.93 612.619 644.899 612.562 644.844C612.506 644.788 612.474 644.712 612.473 644.633C612.472 644.554 612.503 644.478 612.559 644.421C612.614 644.364 612.69 644.332 612.769 644.331H717.653C717.731 644.332 717.807 644.363 717.863 644.42C717.918 644.476 717.949 644.551 717.949 644.63C717.949 644.709 717.918 644.785 717.863 644.841C717.807 644.897 717.731 644.929 717.653 644.93H717.652Z" fill="#CCCCCC"/>
<path d="M717.652 652.122H612.774C612.695 652.122 612.619 652.091 612.562 652.035C612.506 651.98 612.474 651.904 612.473 651.825C612.472 651.746 612.503 651.669 612.559 651.613C612.614 651.556 612.69 651.523 612.769 651.522H717.653C717.731 651.523 717.807 651.555 717.863 651.611C717.918 651.667 717.949 651.743 717.949 651.822C717.949 651.901 717.918 651.977 717.863 652.033C717.807 652.089 717.731 652.121 717.653 652.122H717.652Z" fill="#CCCCCC"/>
<path d="M717.652 659.313H612.774C612.695 659.314 612.619 659.283 612.562 659.227C612.506 659.171 612.474 659.096 612.473 659.016C612.472 658.937 612.503 658.861 612.559 658.804C612.614 658.747 612.69 658.715 612.769 658.714H717.653C717.731 658.715 717.807 658.747 717.863 658.803C717.918 658.859 717.949 658.935 717.949 659.014C717.949 659.093 717.918 659.168 717.863 659.224C717.807 659.281 717.731 659.312 717.653 659.313H717.652Z" fill="#CCCCCC"/>
<path d="M603.031 474.232H558.565C558.143 474.232 557.727 474.329 557.348 474.515L546.125 480.134C545.756 480.291 545.441 480.553 545.22 480.888C544.998 481.222 544.88 481.615 544.88 482.016C544.88 482.417 544.998 482.81 545.22 483.144C545.441 483.479 545.756 483.741 546.125 483.898L557.348 489.517C557.727 489.703 558.143 489.8 558.565 489.8H603.031C603.644 489.835 604.246 489.628 604.707 489.222C605.168 488.817 605.45 488.247 605.494 487.634V476.398C605.45 475.785 605.168 475.215 604.707 474.81C604.246 474.404 603.644 474.197 603.031 474.232V474.232Z" fill="#3F3D56"/>
<path d="M605.494 476.398V487.634C605.45 488.247 605.168 488.817 604.707 489.223C604.246 489.628 603.644 489.835 603.031 489.8H594.172V474.232H603.031C603.644 474.197 604.246 474.404 604.707 474.81C605.168 475.215 605.45 475.785 605.494 476.398V476.398Z" fill="#0D6EFD"/>
<path d="M336.444 694.412C342.17 696.424 348.317 696.928 354.294 695.876C360.271 694.823 365.876 692.248 370.57 688.4C382.522 678.368 386.27 661.84 389.319 646.536C392.325 631.448 395.332 616.359 398.338 601.27L379.456 614.272C365.877 623.622 351.992 633.271 342.59 646.814C333.188 660.357 329.084 678.844 336.638 693.498" fill="#E6E6E6"/>
<path d="M338.058 749.216C336.147 735.295 334.182 721.196 335.523 707.126C336.713 694.63 340.525 682.425 348.287 672.418C352.406 667.117 357.419 662.574 363.1 658.995C364.581 658.06 365.944 660.408 364.469 661.339C354.64 667.551 347.038 676.724 342.758 687.535C338.031 699.558 337.272 712.663 338.087 725.435C338.579 733.158 339.623 740.831 340.675 748.494C340.758 748.841 340.707 749.206 340.531 749.516C340.355 749.826 340.068 750.057 339.728 750.163C339.381 750.257 339.011 750.21 338.698 750.032C338.386 749.855 338.156 749.562 338.058 749.216L338.058 749.216Z" fill="#F2F2F2"/>
<path d="M356.466 724.583C358.921 728.315 362.297 731.352 366.267 733.401C370.237 735.45 374.668 736.442 379.132 736.281C390.607 735.737 400.172 727.728 408.783 720.126L434.253 697.638L417.396 696.831C405.274 696.251 392.839 695.71 381.293 699.448C369.747 703.186 359.098 712.183 356.987 724.134" fill="#E6E6E6"/>
<path d="M332.657 757.218C341.856 740.942 352.525 722.853 371.59 717.071C376.891 715.469 382.449 714.895 387.966 715.38C389.704 715.53 389.27 718.21 387.535 718.061C378.288 717.293 369.059 719.735 361.402 724.974C354.033 729.99 348.296 736.963 343.44 744.357C340.466 748.887 337.801 753.608 335.137 758.323C334.285 759.83 331.796 758.743 332.657 757.218L332.657 757.218Z" fill="#F2F2F2"/>
<path d="M317.919 774.35C318.229 770.759 319.518 767.321 321.646 764.412C323.775 761.503 326.661 759.234 329.99 757.852V748.442H345.772V758.148C348.937 759.598 351.661 761.862 353.666 764.708C355.671 767.554 356.885 770.881 357.185 774.35L360.896 817.488H314.208L317.919 774.35Z" fill="#F2F2F2"/>
<path d="M854.636 568.373L849.942 566.396L846.721 542.861H803.832L800.341 566.3L796.141 568.4C795.94 568.501 795.778 568.666 795.683 568.87C795.588 569.073 795.564 569.303 795.616 569.522C795.668 569.74 795.791 569.935 795.968 570.075C796.144 570.214 796.362 570.29 796.587 570.29H854.249C854.48 570.29 854.703 570.21 854.881 570.064C855.059 569.919 855.182 569.716 855.227 569.49C855.273 569.264 855.239 569.03 855.131 568.826C855.023 568.623 854.849 568.463 854.636 568.373V568.373Z" fill="#E6E6E6"/>
<path d="M930.853 545.992H720.17C719.065 545.99 718.006 545.549 717.225 544.766C716.444 543.984 716.006 542.924 716.006 541.818V512.109H935.018V541.818C935.018 542.924 934.579 543.984 933.799 544.766C933.018 545.549 931.959 545.99 930.853 545.992V545.992Z" fill="#CCCCCC"/>
<path d="M935.238 526.15H715.813V399.032C715.815 397.698 716.346 396.419 717.289 395.475C718.232 394.532 719.511 394.001 720.845 394H930.206C931.54 394.001 932.819 394.532 933.763 395.475C934.706 396.419 935.237 397.698 935.238 399.032L935.238 526.15Z" fill="#3F3D56"/>
<path d="M922.133 516.924H728.919C727.89 516.923 726.904 516.514 726.177 515.787C725.45 515.06 725.041 514.074 725.04 513.045V407.105C725.041 406.077 725.45 405.091 726.177 404.364C726.904 403.636 727.89 403.227 728.919 403.226H922.133C923.161 403.227 924.147 403.636 924.874 404.364C925.602 405.091 926.011 406.077 926.012 407.105V513.045C926.011 514.074 925.602 515.06 924.874 515.787C924.147 516.514 923.161 516.923 922.133 516.924V516.924Z" fill="white"/>
<path d="M871.243 554.305C872.49 553.153 873.975 552.288 875.593 551.772C877.211 551.255 878.922 551.1 880.607 551.317C882.291 551.533 883.907 552.117 885.342 553.026C886.776 553.935 887.994 555.147 888.909 556.577L915.044 551.931L921.741 567.124L884.742 573.167C882.237 574.546 879.313 574.957 876.525 574.324C873.737 573.691 871.278 572.057 869.614 569.732C867.95 567.407 867.197 564.552 867.497 561.709C867.798 558.866 869.13 556.231 871.243 554.305V554.305Z" fill="#FFB6B6"/>
<path d="M895.44 573.704L922.685 573.365L926.134 573.318L981.567 572.62C981.567 572.62 996.62 558.259 1009.73 543.473L1007.89 530.185C1006.1 517.144 999.629 505.198 989.686 496.57C970.913 509.114 960.026 533.944 960.026 533.944L925.656 542.165L922.218 542.987L900.862 548.09L895.44 573.704Z" fill="#0D6EFD"/>
<path d="M1034.91 655.38H984.056C984.056 657.559 928.462 659.328 928.462 659.328C927.235 660.251 926.118 661.311 925.13 662.486C922.162 666.025 920.54 670.499 920.55 675.119V678.277C920.552 683.511 922.632 688.531 926.333 692.232C930.035 695.933 935.054 698.013 940.289 698.015H1034.91C1040.15 698.011 1045.17 695.93 1048.87 692.229C1052.57 688.528 1054.65 683.51 1054.65 678.277V675.119C1054.64 669.886 1052.56 664.869 1048.86 661.169C1045.16 657.469 1040.15 655.387 1034.91 655.38V655.38Z" fill="#E4E4E4"/>
<path d="M997.93 697.231H977.402V815.721H997.93V697.231Z" fill="#E4E4E4"/>
<path d="M918.976 815C918.976 817.218 950.083 815.858 988.456 815.858C1026.83 815.858 1057.94 817.218 1057.94 815C1057.94 812.781 1026.83 795.193 988.456 795.193C950.083 795.193 918.976 812.782 918.976 815Z" fill="#E4E4E4"/>
<path d="M905.186 801.461L889.908 801.46L882.64 742.531L905.188 742.532L905.186 801.461Z" fill="#FFB6B6"/>
<path d="M909.082 816.27L859.82 816.268V815.645C859.82 810.56 861.84 805.683 865.436 802.088C869.032 798.492 873.909 796.472 878.994 796.471H878.995L909.083 796.473L909.082 816.27Z" fill="#2F2E41"/>
<path d="M860.031 801.461L844.753 801.46L837.485 742.531L860.033 742.532L860.031 801.461Z" fill="#FFB6B6"/>
<path d="M863.927 816.27L814.665 816.268V815.645C814.665 810.56 816.685 805.683 820.281 802.088C823.877 798.492 828.754 796.472 833.839 796.471H833.84L863.928 796.473L863.927 816.27Z" fill="#2F2E41"/>
<path d="M996.887 462.2C1011.56 462.2 1023.45 450.307 1023.45 435.636C1023.45 420.965 1011.56 409.072 996.887 409.072C982.216 409.072 970.323 420.965 970.323 435.636C970.323 450.307 982.216 462.2 996.887 462.2Z" fill="#FFB6B6"/>
<path d="M1039.88 617.642C1039.88 617.642 1048.79 664.773 1014.88 670.775C980.968 676.777 932.014 680.995 932.014 680.995L910.03 783.562L880.496 780.925C880.496 780.925 884.424 657.457 894.084 647.798C903.743 638.138 964.796 609.215 964.796 609.215L1039.88 617.642Z" fill="#2F2E41"/>
<path d="M973.646 597.89L958.814 612.769C958.814 612.769 851.72 630.019 847.589 654.754C841.351 692.098 833.984 773.306 833.984 773.306L866.183 770.891L878.809 678.58L930.327 666.861L988.941 634.918L973.646 597.89Z" fill="#2F2E41"/>
<path d="M1022.45 419.779C1019.83 414.832 1016.49 404.972 1011.2 403.143C1008.26 402.168 1005.22 401.521 1002.14 401.213L993.147 404.673L998.043 400.865C997.09 400.808 996.137 400.762 995.185 400.726L989.115 403.06L992.221 400.645C986.562 400.587 980.721 401.175 976.336 404.62C972.598 407.557 968.894 418.682 968.296 423.398C967.655 427.909 967.879 432.501 968.956 436.928L970.493 438.39C971.031 437.157 971.435 435.87 971.699 434.551C972.25 432.087 973.309 429.764 974.807 427.732C976.305 425.699 978.211 424 980.402 422.745L980.485 422.698C983.064 421.247 986.192 421.314 989.148 421.42L1003.19 421.925C1006.57 422.047 1010.21 422.261 1012.84 424.38C1014.51 425.943 1015.83 427.85 1016.7 429.969C1018.01 432.61 1020.56 442.573 1020.56 442.573C1020.56 442.573 1022.01 440.693 1022.7 442.092C1023.82 438.44 1024.49 434.67 1024.72 430.859C1024.94 427.031 1024.16 423.212 1022.45 419.779V419.779Z" fill="#2F2E41"/>
<path d="M1115.36 447.302C1113.66 447.413 1112.01 447.895 1110.53 448.713C1109.04 449.531 1107.75 450.666 1106.74 452.036C1105.74 453.407 1105.05 454.981 1104.72 456.647C1104.4 458.313 1104.44 460.031 1104.84 461.68L1083.48 477.437L1089.89 492.754L1119.75 470.078C1122.47 469.21 1124.78 467.372 1126.24 464.914C1127.7 462.456 1128.21 459.548 1127.67 456.74C1127.13 453.933 1125.58 451.422 1123.31 449.682C1121.04 447.942 1118.21 447.095 1115.36 447.302V447.302Z" fill="#FFB6B6"/>
<path d="M1111.92 479.47L1058.37 538.945C1058.37 538.945 1032.76 530.747 1012.95 521.858L1004.06 494.531C1001.99 488.191 1001.11 481.525 1001.46 474.866C1028.91 467.56 1060.85 494.745 1060.85 494.745L1100.93 463.346L1111.92 479.47Z" fill="#0D6EFD"/>
<path d="M986.964 622.035C977.41 618.735 967.531 615.322 956.875 614.041L956.418 613.986L956.544 613.543C967.575 574.812 964.821 550.036 959.416 512.82C958.266 504.792 959.743 496.608 963.627 489.489C967.51 482.37 973.592 476.698 980.964 473.319L981.03 473.289L1011.46 471.355L1011.53 471.351L1033.67 477.861C1036.85 478.804 1039.64 480.766 1041.6 483.444C1043.56 486.123 1044.59 489.372 1044.53 492.692C1044.29 504.931 1044.8 518.596 1045.34 533.063C1046.55 565.519 1047.8 599.08 1040.71 620.855L1040.67 620.969L1040.58 621.043C1034.06 626.35 1025.9 629.217 1017.5 629.151C1007.56 629.151 997.425 625.649 986.964 622.035Z" fill="#0D6EFD"/>
<path d="M1207.91 818.837H231.415C231.04 818.837 230.68 818.687 230.415 818.422C230.149 818.157 230 817.797 230 817.421C230 817.046 230.149 816.686 230.415 816.421C230.68 816.155 231.04 816.006 231.415 816.006H1207.91C1208.29 816.006 1208.65 816.155 1208.91 816.421C1209.18 816.686 1209.33 817.046 1209.33 817.421C1209.33 817.797 1209.18 818.157 1208.91 818.422C1208.65 818.687 1208.29 818.837 1207.91 818.837Z" fill="#CCCCCC"/>
</g>
<g clip-path="url(#clip1_0_1)">
<path fill-rule="evenodd" clip-rule="evenodd" d="M600.137 35.2505C598.431 35.2189 597.223 35.4355 595.948 35.7154V35.9471H596.181C596.997 37.6193 598.434 38.6962 599.44 40.1368C600.213 41.7664 600.989 43.3936 601.764 45.0208C601.843 44.9433 601.922 44.8666 601.997 44.7891C603.44 43.7747 604.098 42.1506 604.092 39.6711C603.513 39.0623 603.427 38.3017 602.927 37.5766C602.265 36.6096 600.976 36.0633 600.137 35.2505ZM712.742 154.606C713.84 155.411 714.576 156.661 716 157.167V156.934C715.25 155.983 715.06 154.671 714.372 153.675C713.366 152.669 712.353 151.66 711.347 150.65C708.388 146.724 704.637 143.279 700.645 140.415C697.466 138.129 690.34 135.045 689.012 131.343C688.936 131.264 688.857 131.185 688.778 131.106C691.034 130.853 693.677 130.037 695.759 129.478C699.257 128.541 702.384 128.784 705.994 127.85C707.625 127.383 709.252 126.917 710.88 126.456V125.522C709.055 123.648 707.753 121.168 705.764 119.472C700.552 115.038 694.868 110.604 689.011 106.91C685.766 104.859 681.751 103.529 678.309 101.791C677.151 101.207 675.119 100.903 674.353 99.9295C672.548 97.6239 671.562 94.7024 670.167 92.0181C667.248 86.3941 664.377 80.2521 661.789 74.3348C660.027 70.3008 658.873 66.3222 656.673 62.7017C646.109 45.3331 634.735 34.8488 617.121 24.544C613.37 22.3531 608.859 21.4881 604.092 20.3575C601.534 20.2033 598.972 20.0459 596.414 19.8917C594.852 19.2394 593.228 17.3292 591.762 16.4017C585.925 12.7156 570.955 4.6959 566.635 15.2395C563.905 21.8929 570.712 28.3859 573.148 31.7589C574.858 34.1238 577.044 36.7765 578.268 39.4355C579.07 41.1837 579.207 42.9381 579.899 44.7875C581.59 49.3449 583.059 54.3024 585.246 58.5151C586.353 60.6452 587.573 62.8914 588.971 64.7962C589.829 65.9656 591.295 66.4803 591.525 68.2862C590.092 70.2968 590.009 73.4168 589.204 75.9636C585.567 87.4298 586.938 101.679 592.229 110.166C593.85 112.77 597.673 118.359 602.927 116.214C607.523 114.342 606.499 108.538 607.814 103.419C608.109 102.256 607.929 101.403 608.511 100.627V100.859C609.909 103.65 611.305 106.442 612.7 109.233C615.801 114.225 621.302 119.445 625.963 122.962C628.377 124.787 630.28 127.944 633.408 129.012V128.775H633.174C632.566 127.835 631.618 127.441 630.85 126.684C629.028 124.898 627.003 122.679 625.496 120.634C621.255 114.879 617.51 108.579 614.097 102.022C612.466 98.8906 611.049 95.4361 609.674 92.2505C609.145 91.0211 609.151 89.1638 608.046 88.5273C606.541 90.8613 604.324 92.751 603.16 95.5073C601.299 99.9145 601.059 105.289 600.369 110.862C599.961 111.009 600.142 110.909 599.901 111.094C596.66 110.314 595.522 106.978 594.319 104.115C591.274 96.8791 590.708 85.2255 593.388 76.8942C594.081 74.7396 597.219 67.9501 595.946 65.9592C595.34 63.9715 593.344 62.8242 592.227 61.3054C590.839 59.4283 589.458 56.9591 588.498 54.7903C586.009 49.1481 584.846 42.814 582.221 37.1093C580.966 34.3839 578.844 31.6229 577.102 29.1979C575.172 26.5128 573.012 24.5361 571.518 21.2865C570.986 20.1329 570.262 18.2867 571.052 17.0999C571.301 16.299 571.656 15.9653 572.449 15.7036C573.801 14.6631 577.556 16.0499 578.962 16.6342C582.691 18.1831 585.808 19.6593 588.968 21.7522C590.484 22.7579 592.018 24.7045 593.85 25.243H595.945C599.223 25.9949 602.893 25.4778 605.95 26.4069C611.359 28.0507 616.206 30.6077 620.607 33.3877C634.016 41.8533 644.981 53.9079 652.482 68.2862C653.688 70.6013 654.212 72.8104 655.273 75.267C657.416 80.2189 660.12 85.3132 662.253 90.1569C664.38 94.9863 666.455 99.8623 669.464 103.884C671.045 105.996 677.157 107.13 679.936 108.305C681.883 109.127 685.071 109.985 686.913 111.094C690.438 113.22 693.848 115.748 697.151 118.076C698.802 119.241 703.879 121.791 704.129 123.89C695.948 123.673 689.698 124.433 684.354 126.685C682.835 127.323 680.415 127.342 680.165 129.242C681 130.116 681.132 131.426 681.796 132.5C683.069 134.566 685.222 137.33 687.146 138.784C689.247 140.369 691.411 142.065 693.66 143.437C697.664 145.88 702.136 147.274 705.99 149.719C708.27 151.163 710.526 152.978 712.742 154.606Z" fill="#00758F"/>
</g>
<path d="M853.33 248.459C851.774 247.924 850.162 247.417 848.501 246.938C848.774 245.824 849.025 244.725 849.247 243.644C852.903 225.901 850.513 211.608 842.352 206.901C834.527 202.389 821.729 207.094 808.804 218.342C807.562 219.424 806.315 220.569 805.069 221.769C804.239 220.975 803.411 220.208 802.584 219.474C789.038 207.446 775.461 202.378 767.308 207.098C759.49 211.623 757.175 225.061 760.466 241.876C760.783 243.5 761.155 245.159 761.575 246.845C759.653 247.39 757.798 247.972 756.023 248.591C740.142 254.127 730 262.805 730 271.805C730 281.102 740.888 290.426 757.429 296.079C758.734 296.525 760.089 296.947 761.484 297.348C761.031 299.172 760.637 300.959 760.306 302.702C757.169 319.225 759.619 332.345 767.416 336.842C775.469 341.487 788.985 336.713 802.147 325.209C803.187 324.299 804.231 323.335 805.277 322.324C806.632 323.629 807.986 324.865 809.332 326.023C822.08 336.994 834.671 341.423 842.46 336.914C850.506 332.256 853.121 318.162 849.726 301.015C849.467 299.705 849.165 298.367 848.826 297.005C849.775 296.725 850.707 296.435 851.616 296.134C868.812 290.436 880 281.226 880 271.805C880 262.772 869.531 254.036 853.33 248.459ZM849.6 290.051C848.78 290.323 847.939 290.585 847.081 290.84C845.183 284.83 842.621 278.439 839.485 271.837C842.477 265.391 844.94 259.082 846.785 253.112C848.32 253.556 849.809 254.024 851.244 254.518C865.125 259.297 873.592 266.362 873.592 271.805C873.592 277.604 864.448 285.132 849.6 290.051ZM843.44 302.259C844.941 309.841 845.155 316.697 844.161 322.056C843.267 326.872 841.471 330.082 839.249 331.368C834.522 334.104 824.413 330.548 813.511 321.166C812.261 320.09 811.002 318.942 809.739 317.727C813.966 313.104 818.19 307.73 822.313 301.762C829.564 301.119 836.415 300.067 842.628 298.63C842.934 299.865 843.206 301.075 843.44 302.259ZM781.138 330.895C776.52 332.526 772.841 332.573 770.618 331.291C765.886 328.562 763.919 318.028 766.602 303.897C766.91 302.279 767.276 300.617 767.697 298.918C773.842 300.276 780.643 301.254 787.911 301.843C792.062 307.683 796.408 313.051 800.788 317.752C799.831 318.675 798.878 319.555 797.93 320.384C792.11 325.471 786.278 329.08 781.138 330.895ZM759.501 290.016C752.187 287.516 746.147 284.267 742.006 280.721C738.286 277.535 736.408 274.372 736.408 271.805C736.408 266.343 744.551 259.377 758.132 254.641C759.78 254.067 761.505 253.525 763.295 253.017C765.172 259.123 767.635 265.506 770.606 271.961C767.596 278.512 765.099 284.998 763.204 291.175C761.927 290.808 760.691 290.422 759.501 290.016ZM766.754 240.645C763.935 226.239 765.807 215.371 770.519 212.644C775.537 209.738 786.633 213.881 798.329 224.265C799.077 224.929 799.827 225.624 800.58 226.343C796.222 231.022 791.915 236.35 787.802 242.156C780.747 242.809 773.994 243.86 767.785 245.266C767.395 243.696 767.049 242.153 766.754 240.645ZM831.457 256.622C829.973 254.058 828.449 251.555 826.896 249.121C831.682 249.726 836.267 250.529 840.573 251.511C839.281 255.655 837.669 259.987 835.773 264.428C834.412 261.845 832.973 259.24 831.457 256.622ZM805.072 230.922C808.027 234.124 810.987 237.699 813.899 241.578C810.965 241.44 807.995 241.368 805 241.368C802.034 241.368 799.085 241.438 796.17 241.574C799.084 237.731 802.07 234.161 805.072 230.922ZM778.517 256.666C777.034 259.237 775.622 261.828 774.282 264.423C772.416 259.997 770.82 255.646 769.516 251.444C773.796 250.486 778.359 249.703 783.115 249.109C781.54 251.566 780.003 254.088 778.517 256.666V256.666ZM783.252 294.959C778.339 294.411 773.706 293.668 769.428 292.737C770.752 288.459 772.384 284.015 774.29 279.494C775.632 282.087 777.05 284.679 778.542 287.255H778.542C780.062 289.88 781.636 292.451 783.252 294.959ZM805.249 313.14C802.212 309.864 799.182 306.239 796.224 302.34C799.096 302.453 802.024 302.51 805 302.51C808.057 302.51 811.08 302.441 814.055 302.309C811.134 306.278 808.184 309.908 805.249 313.14ZM835.834 279.264C837.839 283.833 839.529 288.255 840.871 292.459C836.522 293.451 831.826 294.25 826.878 294.844C828.435 292.376 829.973 289.83 831.483 287.211C833.011 284.562 834.462 281.908 835.834 279.264ZM825.932 284.01C823.588 288.076 821.18 291.957 818.737 295.62C814.285 295.938 809.687 296.102 805 296.102C800.332 296.102 795.792 295.957 791.419 295.673C788.877 291.962 786.417 288.069 784.087 284.045H784.088C781.764 280.031 779.626 275.984 777.688 271.959C779.625 267.925 781.758 263.873 784.068 259.867L784.068 259.868C786.384 255.851 788.822 251.977 791.341 248.289C795.802 247.952 800.377 247.776 805 247.776H805C809.644 247.776 814.224 247.953 818.684 248.293C821.164 251.954 823.586 255.815 825.911 259.833C828.263 263.896 830.424 267.921 832.378 271.868C830.43 275.884 828.274 279.949 825.932 284.01ZM839.151 212.453C844.174 215.35 846.128 227.032 842.972 242.351C842.77 243.328 842.544 244.324 842.297 245.333C836.074 243.897 829.317 242.828 822.241 242.165C818.12 236.295 813.849 230.959 809.561 226.34C810.714 225.231 811.865 224.174 813.011 223.176C824.085 213.538 834.435 209.734 839.151 212.453ZM805 258.411C812.397 258.411 818.394 264.408 818.394 271.805C818.394 279.203 812.397 285.2 805 285.2C797.603 285.2 791.606 279.203 791.606 271.805C791.606 264.408 797.603 258.411 805 258.411Z" fill="#00D8FF"/>
<path d="M570.625 231.375H439.375V362.625H570.625V231.375Z" fill="#F5DE19"/>
<path d="M527.542 333.914C528.66 336.186 530.398 338.095 532.554 339.422C534.711 340.749 537.198 341.439 539.73 341.414C544.839 341.414 548.106 338.859 548.106 335.32C548.106 331.102 544.75 329.592 539.125 327.131L536.041 325.809C527.134 322.017 521.228 317.269 521.228 307.228C521.228 297.98 528.259 290.934 539.289 290.934C542.86 290.677 546.427 291.476 549.546 293.232C552.666 294.988 555.199 297.624 556.83 300.811L547.187 306.975C546.559 305.395 545.466 304.043 544.052 303.099C542.638 302.154 540.97 301.662 539.27 301.688C538.529 301.613 537.779 301.694 537.071 301.926C536.362 302.157 535.709 302.533 535.154 303.031C534.599 303.528 534.153 304.136 533.846 304.815C533.539 305.494 533.376 306.23 533.369 306.975C533.369 310.673 535.661 312.173 540.953 314.475L544.037 315.797C554.519 320.292 560.444 324.872 560.444 335.17C560.444 346.275 551.72 352.359 540.006 352.359C535.442 352.65 530.891 351.614 526.903 349.376C522.915 347.137 519.659 343.793 517.53 339.745L527.542 333.914ZM483.972 334.983C485.908 338.419 487.67 341.325 491.908 341.325C495.958 341.325 498.517 339.741 498.517 333.577V291.638H510.85V333.741C510.85 346.509 503.35 352.322 492.433 352.322C488.574 352.533 484.741 351.571 481.439 349.563C478.137 347.555 475.52 344.595 473.931 341.072L483.972 334.983Z" fill="black"/>
<path d="M232.094 512.766L219.789 378H351.918L339.906 512.766L286 528" fill="#264DE4"/>
<path d="M286 388.84V516.281L329.652 504.27L339.906 388.84" fill="#2965F1"/>
<path d="M244.398 405.539H286V421.945H245.863L244.398 405.539ZM247.328 438.938H286V455.637H248.793L247.328 438.938ZM249.672 463.84H266.078L267.25 477.023L286 482.004V499.289L251.723 489.914" fill="#EBEBEB"/>
<path d="M286 438.938V455.637H306.215L304.164 477.023L286 482.004V499.289L319.691 489.914L327.309 405.539H286V421.945H309.438L307.826 438.938H286Z" fill="white"/>
<path d="M280 222C293.8 222 305 210.8 305 197V172H280C266.2 172 255 183.2 255 197C255 210.8 266.2 222 280 222Z" fill="#0ACF83"/>
<path d="M255 147C255 133.2 266.2 122 280 122H305V172H280C266.2 172 255 160.8 255 147Z" fill="#A259FF"/>
<path d="M255 97C255 83.2 266.2 72 280 72H305V122H280C266.2 122 255 110.8 255 97Z" fill="#F24E1E"/>
<path d="M305 72H330C343.8 72 355 83.2 355 97C355 110.8 343.8 122 330 122H305V72Z" fill="#FF7262"/>
<path d="M355 147C355 160.8 343.8 172 330 172C316.2 172 305 160.8 305 147C305 133.2 316.2 122 330 122C343.8 122 355 133.2 355 147Z" fill="#1ABCFE"/>
<path d="M140.801 743.766L128.789 609H260.918L248.906 743.766L194.707 759" fill="#E34F26"/>
<path d="M195 747.281L238.652 735.27L248.906 619.84H195" fill="#EF652A"/>
<path d="M195 669.938H173.027L171.562 652.945H195V636.539H153.398L157.793 686.637H195V669.938ZM194.707 713.004L176.25 708.023L175.078 694.84H158.672L160.723 720.914L194.707 730.289V713.004Z" fill="#EBEBEB"/>
<path d="M194.707 669.938V686.637H215.215L213.164 708.023L194.707 713.004V730.289L228.691 720.914L233.379 669.938H194.707ZM194.707 636.539V652.945H234.844L236.309 636.539H194.707Z" fill="white"/>
<path d="M940.188 137.312L940.984 136.202L978.578 64.8859L978.658 64.1312L962.087 33.0062C961.784 32.4371 961.309 31.9777 960.731 31.6931C960.152 31.4085 959.498 31.3131 958.862 31.4204C958.226 31.5277 957.64 31.8323 957.187 32.291C956.733 32.7497 956.436 33.3394 956.336 33.9766L940.188 137.312Z" fill="#FFC24A"/>
<path d="M940.656 136.469L941.256 135.297L978.461 64.7219L961.933 33.475C961.66 32.9316 961.219 32.4911 960.675 32.2196C960.131 31.9481 959.514 31.8601 958.916 31.9688C958.318 32.0776 957.771 32.3772 957.357 32.8228C956.944 33.2684 956.686 33.8361 956.622 34.4406L940.656 136.469Z" fill="#FFA712"/>
<path d="M990.738 87.6719L1003.08 75.0156L990.733 51.4797C990.461 50.9731 990.057 50.5498 989.564 50.2546C989.071 49.9595 988.507 49.8036 987.932 49.8036C987.357 49.8036 986.793 49.9595 986.3 50.2546C985.807 50.5498 985.403 50.9731 985.131 51.4797L978.536 64.0516V65.125L990.738 87.6719Z" fill="#F4BD62"/>
<path d="M990.517 87.1562L1002.51 74.875L990.517 52C990.321 51.5048 989.985 51.0771 989.552 50.7682C989.118 50.4594 988.603 50.2826 988.071 50.2594C987.539 50.2361 987.012 50.3672 986.552 50.637C986.093 50.9067 985.722 51.3036 985.483 51.7797L978.855 64.5719L978.658 65.2234L990.517 87.1562Z" fill="#FFA50E"/>
<path d="M940.197 137.317L940.558 136.952L941.866 136.422L989.959 88.5063L990.569 86.8469L978.573 63.9813L940.197 137.317Z" fill="#F6820C"/>
<path d="M992.275 161.481L1035.81 137.205L1023.37 60.6531C1023.28 60.1135 1023.05 59.6089 1022.69 59.1946C1022.33 58.7804 1021.87 58.4726 1021.35 58.305C1020.83 58.1374 1020.27 58.1166 1019.74 58.2447C1019.21 58.3728 1018.72 58.6449 1018.33 59.0313L940.188 137.313L983.467 161.477C984.813 162.227 986.328 162.622 987.869 162.622C989.41 162.622 990.925 162.227 992.27 161.477" fill="#FDE068"/>
<path d="M1035.41 137.003L1023.08 61.0281C1023.05 60.512 1022.88 60.0139 1022.58 59.5969C1022.27 59.1799 1021.85 58.8627 1021.36 58.6856C1020.88 58.5084 1020.35 58.4792 1019.85 58.6017C1019.35 58.7241 1018.89 58.9927 1018.54 59.3734L940.656 137.167L983.458 161.073C984.793 161.818 986.296 162.209 987.824 162.209C989.353 162.209 990.856 161.818 992.191 161.073L1035.41 137.003Z" fill="#FCCA3F"/>
<path d="M992.275 160.75C990.929 161.501 989.414 161.895 987.873 161.895C986.333 161.895 984.817 161.501 983.472 160.75L940.544 136.947L940.188 137.313L983.467 161.477C984.813 162.227 986.328 162.622 987.869 162.622C989.41 162.622 990.925 162.227 992.27 161.477L1035.81 137.205L1035.7 136.548L992.275 160.75Z" fill="#EEAB37"/>
<path d="M1149.93 304.968C1155.47 304.396 1159.67 299.624 1159.48 293.897C1159.29 288.17 1154.52 283.589 1148.79 283.589H1148.41C1142.49 283.78 1137.91 288.743 1138.1 294.66C1138.29 297.524 1139.44 300.005 1141.15 301.723C1134.66 314.513 1124.74 323.866 1109.85 331.693C1099.73 337.038 1089.23 338.947 1078.74 337.61C1070.15 336.465 1063.46 332.647 1059.27 326.348C1053.16 316.994 1052.58 306.877 1057.74 296.76C1061.37 289.506 1067.09 284.162 1070.72 281.489C1069.95 279.008 1068.81 274.808 1068.24 271.754C1040.56 291.797 1043.42 318.903 1051.82 331.693C1058.12 341.237 1070.91 347.155 1085.03 347.155C1088.85 347.155 1092.67 346.773 1096.49 345.819C1120.92 341.046 1139.44 326.539 1149.93 304.968ZM1183.53 281.298C1169.02 264.309 1147.64 254.956 1123.21 254.956H1120.16C1118.44 251.52 1114.81 249.229 1110.8 249.229H1110.42C1104.5 249.42 1099.92 254.383 1100.11 260.301C1100.31 266.027 1105.08 270.609 1110.8 270.609H1111.19C1115.38 270.418 1119.01 267.745 1120.54 264.118H1123.97C1138.48 264.118 1152.22 268.318 1164.63 276.526C1174.18 282.825 1181.05 291.034 1184.87 300.96C1188.11 308.977 1187.92 316.803 1184.48 323.485C1179.14 333.602 1170.17 339.137 1158.33 339.137C1150.7 339.137 1143.44 336.847 1139.63 335.129C1137.53 337.038 1133.71 340.092 1131.04 342.001C1139.24 345.818 1147.64 347.918 1155.66 347.918C1173.99 347.918 1187.54 337.801 1192.69 327.684C1198.23 316.613 1197.85 297.524 1183.53 281.298ZM1086.56 308.214C1086.75 313.94 1091.52 318.521 1097.25 318.521H1097.63C1103.55 318.331 1108.13 313.367 1107.94 307.45C1107.75 301.723 1102.98 297.142 1097.25 297.142H1096.87C1096.49 297.142 1095.91 297.142 1095.53 297.333C1087.71 284.352 1084.46 270.227 1085.61 254.956C1086.37 243.502 1090.19 233.576 1096.87 225.368C1102.4 218.305 1113.09 214.869 1120.35 214.678C1140.58 214.296 1149.17 239.494 1149.74 249.611C1152.22 250.183 1156.42 251.52 1159.29 252.474C1157 221.55 1137.91 205.516 1119.58 205.516C1102.4 205.516 1086.56 217.923 1080.26 236.249C1071.48 260.682 1077.21 284.162 1087.9 302.678C1086.94 304.014 1086.37 306.114 1086.56 308.214Z" fill="#764ABC"/>
<defs>
<clipPath id="clip0_0_1">
<rect width="979.327" height="424.837" fill="white" transform="translate(230 394)"/>
</clipPath>
<clipPath id="clip1_0_1">
<rect width="150" height="150" fill="white" transform="translate(566 10)"/>
</clipPath>
</defs>
</svg>
