<svg width="1148" height="870" viewBox="0 0 1148 870" fill="none" xmlns="http://www.w3.org/2000/svg">
<rect width="1440" height="1024" transform="translate(-90)" fill="#F8F8FF"/>
<g clip-path="url(#clip0_2_2)">
<path d="M1023.38 569.258H448.805C446.366 569.258 444.026 570.227 442.301 571.952C440.576 573.677 439.607 576.017 439.607 578.457C439.607 580.896 440.576 583.236 442.301 584.961C444.026 586.686 446.366 587.655 448.805 587.655H465.08V807.721C465.08 810.161 466.05 812.5 467.775 814.225C469.5 815.951 471.84 816.92 474.279 816.92C476.719 816.92 479.059 815.951 480.784 814.225C482.509 812.5 483.478 810.161 483.478 807.721L483.618 587.655H944.774L987.294 807.721C987.294 810.161 988.263 812.5 989.988 814.225C991.713 815.951 994.053 816.92 996.493 816.92C998.932 816.92 1001.27 815.951 1003 814.225C1004.72 812.5 1005.69 810.161 1005.69 807.721L1008.37 587.655H1023.38C1025.82 587.655 1028.16 586.686 1029.89 584.961C1031.61 583.236 1032.58 580.896 1032.58 578.457C1032.58 576.017 1031.61 573.677 1029.89 571.952C1028.16 570.227 1025.82 569.258 1023.38 569.258V569.258Z" fill="#CCCCCC"/>
<path d="M548.401 528.269V567.223H450.804C448.247 567.312 445.696 566.897 443.299 566C440.902 565.104 438.705 563.744 436.833 561.998C434.962 560.252 433.452 558.155 432.391 555.826C431.33 553.497 430.738 550.982 430.649 548.424C430.56 545.866 430.976 543.316 431.873 540.918C432.769 538.521 434.129 536.324 435.875 534.453C437.621 532.581 439.718 531.072 442.047 530.011C444.376 528.95 446.891 528.358 449.449 528.269C449.901 528.253 450.352 528.253 450.804 528.269L548.401 528.269Z" fill="#F2F2F2"/>
<path d="M550.798 566.924C550.798 567.321 550.64 567.702 550.359 567.983C550.078 568.264 549.697 568.422 549.3 568.422H449.066C443.625 568.418 438.408 566.254 434.561 562.405C430.715 558.556 428.554 553.337 428.554 547.896C428.554 542.455 430.715 537.236 434.561 533.387C438.408 529.538 443.625 527.374 449.066 527.37H549.3C549.497 527.369 549.692 527.408 549.874 527.483C550.056 527.558 550.222 527.668 550.362 527.807C550.501 527.946 550.612 528.112 550.687 528.294C550.763 528.476 550.802 528.671 550.802 528.868C550.802 529.065 550.763 529.26 550.687 529.442C550.612 529.624 550.501 529.79 550.362 529.929C550.222 530.068 550.056 530.178 549.874 530.253C549.692 530.328 549.497 530.367 549.3 530.366H449.066C444.422 530.373 439.97 532.223 436.688 535.51C433.406 538.797 431.563 543.251 431.563 547.896C431.563 552.54 433.406 556.995 436.688 560.282C439.97 563.569 444.422 565.419 449.066 565.426H549.3C549.697 565.426 550.078 565.584 550.359 565.865C550.64 566.146 550.798 566.527 550.798 566.924V566.924Z" fill="#0D6EFD"/>
<path d="M548.401 537.258H443.522C443.443 537.259 443.367 537.228 443.311 537.172C443.254 537.116 443.222 537.041 443.221 536.961C443.22 536.882 443.251 536.806 443.307 536.749C443.362 536.692 443.438 536.66 443.517 536.659H548.401C548.48 536.66 548.555 536.692 548.61 536.748C548.666 536.804 548.697 536.88 548.697 536.959C548.697 537.038 548.666 537.113 548.61 537.169C548.555 537.226 548.48 537.258 548.401 537.258Z" fill="#CCCCCC"/>
<path d="M548.401 544.45H443.522C443.443 544.45 443.367 544.419 443.311 544.364C443.254 544.308 443.222 544.232 443.221 544.153C443.22 544.074 443.251 543.998 443.307 543.941C443.362 543.884 443.438 543.852 443.517 543.851H548.401C548.48 543.851 548.555 543.883 548.61 543.94C548.666 543.996 548.697 544.071 548.697 544.15C548.697 544.229 548.666 544.305 548.61 544.361C548.555 544.417 548.48 544.449 548.401 544.45Z" fill="#CCCCCC"/>
<path d="M548.401 551.642H443.522C443.443 551.642 443.367 551.611 443.311 551.555C443.254 551.5 443.222 551.424 443.221 551.345C443.22 551.265 443.251 551.189 443.307 551.132C443.362 551.076 443.438 551.043 443.517 551.042H548.401C548.48 551.043 548.555 551.075 548.61 551.131C548.666 551.187 548.697 551.263 548.697 551.342C548.697 551.421 548.666 551.497 548.61 551.553C548.555 551.609 548.48 551.641 548.401 551.642Z" fill="#CCCCCC"/>
<path d="M548.401 558.833H443.522C443.443 558.834 443.367 558.803 443.311 558.747C443.254 558.691 443.222 558.616 443.221 558.536C443.22 558.457 443.251 558.381 443.307 558.324C443.362 558.267 443.438 558.235 443.517 558.234H548.401C548.48 558.235 548.555 558.267 548.61 558.323C548.666 558.379 548.697 558.455 548.697 558.534C548.697 558.612 548.666 558.688 548.61 558.744C548.555 558.8 548.48 558.832 548.401 558.833Z" fill="#CCCCCC"/>
<path d="M530.003 487.228V526.182H432.407C427.241 526.362 422.215 524.482 418.436 520.957C414.656 517.431 412.431 512.548 412.252 507.383C412.072 502.217 413.952 497.191 417.477 493.412C421.003 489.632 425.886 487.407 431.051 487.228C431.503 487.212 431.955 487.212 432.407 487.228H530.003Z" fill="#F2F2F2"/>
<path d="M532.4 525.883C532.4 526.28 532.242 526.661 531.961 526.942C531.68 527.223 531.299 527.381 530.902 527.381H430.668C425.225 527.381 420.004 525.218 416.154 521.369C412.305 517.52 410.142 512.299 410.142 506.855C410.142 501.411 412.305 496.19 416.154 492.341C420.004 488.491 425.225 486.329 430.668 486.329H530.902C531.099 486.329 531.293 486.367 531.475 486.443C531.657 486.518 531.822 486.628 531.961 486.768C532.1 486.907 532.211 487.072 532.286 487.254C532.361 487.435 532.4 487.63 532.4 487.827C532.4 488.024 532.361 488.219 532.286 488.4C532.211 488.582 532.1 488.747 531.961 488.886C531.822 489.026 531.657 489.136 531.475 489.211C531.293 489.286 531.099 489.325 530.902 489.325H430.668C426.019 489.325 421.561 491.172 418.273 494.46C414.986 497.747 413.139 502.206 413.139 506.855C413.139 511.504 414.986 515.963 418.273 519.25C421.561 522.538 426.019 524.384 430.668 524.384H530.902C531.299 524.385 531.68 524.543 531.961 524.823C532.242 525.104 532.4 525.485 532.4 525.883Z" fill="#3F3D56"/>
<path d="M530.003 496.217H425.125C425.045 496.218 424.969 496.187 424.913 496.131C424.856 496.075 424.824 496 424.823 495.92C424.823 495.841 424.853 495.765 424.909 495.708C424.964 495.651 425.04 495.619 425.119 495.618H530.003C530.082 495.619 530.157 495.651 530.213 495.707C530.268 495.763 530.299 495.839 530.299 495.918C530.299 495.996 530.268 496.072 530.213 496.128C530.157 496.184 530.082 496.216 530.003 496.217V496.217Z" fill="#CCCCCC"/>
<path d="M530.003 503.409H425.125C425.045 503.409 424.969 503.378 424.913 503.323C424.856 503.267 424.824 503.191 424.823 503.112C424.823 503.033 424.853 502.956 424.909 502.9C424.964 502.843 425.04 502.811 425.119 502.81H530.003C530.082 502.81 530.157 502.842 530.213 502.898C530.268 502.954 530.299 503.03 530.299 503.109C530.299 503.188 530.268 503.264 530.213 503.32C530.157 503.376 530.082 503.408 530.003 503.409Z" fill="#CCCCCC"/>
<path d="M530.003 510.6H425.125C425.045 510.601 424.969 510.57 424.913 510.514C424.856 510.459 424.824 510.383 424.823 510.304C424.823 510.224 424.853 510.148 424.909 510.091C424.964 510.035 425.04 510.002 425.119 510.001H530.003C530.082 510.002 530.157 510.034 530.213 510.09C530.268 510.146 530.299 510.222 530.299 510.301C530.299 510.38 530.268 510.456 530.213 510.512C530.157 510.568 530.082 510.6 530.003 510.6Z" fill="#CCCCCC"/>
<path d="M530.003 517.792H425.125C425.045 517.792 424.969 517.761 424.913 517.706C424.856 517.65 424.824 517.574 424.823 517.495C424.823 517.416 424.853 517.34 424.909 517.283C424.964 517.226 425.04 517.194 425.119 517.193H530.003C530.082 517.194 530.157 517.225 530.213 517.282C530.268 517.338 530.299 517.413 530.299 517.492C530.299 517.571 530.268 517.647 530.213 517.703C530.157 517.759 530.082 517.791 530.003 517.792V517.792Z" fill="#CCCCCC"/>
<path d="M643.537 707.102V673.137C643.537 671.635 642.94 670.195 641.879 669.134C640.817 668.072 639.377 667.476 637.876 667.476H509.092C507.59 667.476 506.151 668.072 505.089 669.134C504.027 670.195 503.431 671.635 503.431 673.137V707.102H643.537Z" fill="#CCCCCC"/>
<path d="M643.537 719.839H503.431V763.71H643.537V719.839Z" fill="#CCCCCC"/>
<path d="M503.431 776.447V810.412C503.431 811.914 504.027 813.353 505.089 814.415C506.151 815.477 507.59 816.073 509.092 816.073H637.876C639.377 816.073 640.817 815.477 641.879 814.415C642.94 813.353 643.537 811.914 643.537 810.412V776.447H503.431Z" fill="#CCCCCC"/>
<path d="M572.776 692.95C575.121 692.95 577.022 691.049 577.022 688.704C577.022 686.359 575.121 684.458 572.776 684.458C570.432 684.458 568.531 686.359 568.531 688.704C568.531 691.049 570.432 692.95 572.776 692.95Z" fill="white"/>
<path d="M572.776 749.558C575.121 749.558 577.022 747.657 577.022 745.312C577.022 742.968 575.121 741.067 572.776 741.067C570.432 741.067 568.531 742.968 568.531 745.312C568.531 747.657 570.432 749.558 572.776 749.558Z" fill="white"/>
<path d="M573.004 804.968C575.349 804.968 577.249 803.067 577.249 800.722C577.249 798.377 575.349 796.477 573.004 796.477C570.659 796.477 568.758 798.377 568.758 800.722C568.758 803.067 570.659 804.968 573.004 804.968Z" fill="white"/>
<path d="M627.652 628.749V667.704H530.056C524.893 667.88 519.871 665.998 516.094 662.473C512.317 658.948 510.094 654.067 509.915 648.904C509.735 643.741 511.612 638.717 515.135 634.938C518.658 631.158 523.537 628.932 528.7 628.749C529.152 628.733 529.604 628.733 530.056 628.749H627.652Z" fill="#F2F2F2"/>
<path d="M630.05 667.404C630.05 667.801 629.892 668.182 629.611 668.463C629.33 668.744 628.949 668.902 628.552 668.902H528.318C522.875 668.903 517.655 666.743 513.805 662.896C509.955 659.049 507.79 653.831 507.787 648.388C507.784 642.946 509.942 637.725 513.787 633.873C517.633 630.022 522.851 627.855 528.293 627.85H628.552C628.749 627.849 628.944 627.888 629.126 627.963C629.308 628.038 629.474 628.148 629.613 628.287C629.753 628.426 629.864 628.592 629.939 628.774C630.015 628.956 630.054 629.151 630.054 629.348C630.054 629.545 630.015 629.74 629.939 629.922C629.864 630.104 629.753 630.27 629.613 630.409C629.474 630.548 629.308 630.658 629.126 630.733C628.944 630.808 628.749 630.847 628.552 630.846H528.318C523.673 630.852 519.22 632.702 515.938 635.989C512.655 639.276 510.811 643.731 510.811 648.376C510.811 653.021 512.655 657.476 515.938 660.763C519.22 664.05 523.673 665.9 528.318 665.906H628.552C628.949 665.906 629.33 666.064 629.611 666.345C629.892 666.626 630.05 667.007 630.05 667.404V667.404Z" fill="#3F3D56"/>
<path d="M627.652 637.738H522.774C522.695 637.739 522.619 637.708 522.562 637.652C522.506 637.596 522.474 637.521 522.473 637.441C522.472 637.362 522.503 637.286 522.559 637.229C522.614 637.172 522.69 637.14 522.769 637.139H627.653C627.731 637.14 627.807 637.172 627.863 637.228C627.918 637.284 627.949 637.36 627.949 637.439C627.949 637.518 627.918 637.593 627.863 637.649C627.807 637.706 627.731 637.738 627.653 637.738H627.652Z" fill="#CCCCCC"/>
<path d="M627.652 644.93H522.774C522.695 644.93 522.619 644.899 522.562 644.844C522.506 644.788 522.474 644.712 522.473 644.633C522.472 644.554 522.503 644.478 522.559 644.421C522.614 644.364 522.69 644.332 522.769 644.331H627.653C627.731 644.332 627.807 644.363 627.863 644.42C627.918 644.476 627.949 644.551 627.949 644.63C627.949 644.709 627.918 644.785 627.863 644.841C627.807 644.897 627.731 644.929 627.653 644.93H627.652Z" fill="#CCCCCC"/>
<path d="M627.652 652.122H522.774C522.695 652.122 522.619 652.091 522.562 652.035C522.506 651.98 522.474 651.904 522.473 651.825C522.472 651.746 522.503 651.669 522.559 651.613C522.614 651.556 522.69 651.523 522.769 651.522H627.653C627.731 651.523 627.807 651.555 627.863 651.611C627.918 651.667 627.949 651.743 627.949 651.822C627.949 651.901 627.918 651.977 627.863 652.033C627.807 652.089 627.731 652.121 627.653 652.122H627.652Z" fill="#CCCCCC"/>
<path d="M627.652 659.313H522.774C522.695 659.314 522.619 659.283 522.562 659.227C522.506 659.171 522.474 659.096 522.473 659.016C522.472 658.937 522.503 658.861 522.559 658.804C522.614 658.747 522.69 658.715 522.769 658.714H627.653C627.731 658.715 627.807 658.747 627.863 658.803C627.918 658.859 627.949 658.935 627.949 659.014C627.949 659.093 627.918 659.168 627.863 659.224C627.807 659.281 627.731 659.312 627.653 659.313H627.652Z" fill="#CCCCCC"/>
<path d="M513.031 474.232H468.565C468.143 474.232 467.727 474.329 467.348 474.515L456.125 480.134C455.756 480.291 455.441 480.553 455.22 480.888C454.998 481.222 454.88 481.615 454.88 482.016C454.88 482.417 454.998 482.81 455.22 483.144C455.441 483.479 455.756 483.741 456.125 483.898L467.348 489.517C467.727 489.703 468.143 489.8 468.565 489.8H513.031C513.644 489.835 514.246 489.628 514.707 489.222C515.168 488.817 515.45 488.247 515.494 487.634V476.398C515.45 475.785 515.168 475.215 514.707 474.81C514.246 474.404 513.644 474.197 513.031 474.232V474.232Z" fill="#3F3D56"/>
<path d="M515.494 476.398V487.634C515.45 488.247 515.168 488.817 514.707 489.223C514.246 489.628 513.644 489.835 513.031 489.8H504.172V474.232H513.031C513.644 474.197 514.246 474.404 514.707 474.81C515.168 475.215 515.45 475.785 515.494 476.398V476.398Z" fill="#0D6EFD"/>
<path d="M246.444 694.412C252.17 696.424 258.317 696.928 264.294 695.876C270.271 694.823 275.876 692.248 280.57 688.4C292.522 678.368 296.27 661.84 299.319 646.536C302.325 631.448 305.332 616.359 308.338 601.27L289.456 614.272C275.877 623.622 261.992 633.271 252.59 646.814C243.188 660.357 239.084 678.844 246.638 693.498" fill="#E6E6E6"/>
<path d="M248.058 749.216C246.147 735.295 244.182 721.196 245.523 707.126C246.713 694.63 250.525 682.425 258.287 672.418C262.406 667.117 267.419 662.574 273.1 658.995C274.581 658.06 275.944 660.408 274.469 661.339C264.64 667.551 257.038 676.724 252.758 687.535C248.031 699.558 247.272 712.663 248.087 725.435C248.579 733.158 249.623 740.831 250.675 748.494C250.758 748.841 250.707 749.206 250.531 749.516C250.355 749.826 250.068 750.057 249.728 750.163C249.381 750.257 249.011 750.21 248.698 750.032C248.386 749.855 248.156 749.562 248.058 749.216L248.058 749.216Z" fill="#F2F2F2"/>
<path d="M266.466 724.583C268.921 728.315 272.297 731.352 276.267 733.401C280.237 735.45 284.668 736.442 289.132 736.281C300.607 735.737 310.172 727.728 318.783 720.126L344.253 697.638L327.396 696.831C315.274 696.251 302.839 695.71 291.293 699.448C279.747 703.186 269.098 712.183 266.987 724.134" fill="#E6E6E6"/>
<path d="M242.657 757.218C251.856 740.942 262.525 722.853 281.59 717.071C286.891 715.469 292.449 714.895 297.966 715.38C299.704 715.53 299.27 718.21 297.535 718.061C288.288 717.293 279.059 719.735 271.402 724.974C264.033 729.99 258.296 736.963 253.44 744.357C250.466 748.887 247.801 753.608 245.137 758.323C244.285 759.83 241.796 758.743 242.657 757.218L242.657 757.218Z" fill="#F2F2F2"/>
<path d="M227.919 774.35C228.229 770.759 229.518 767.321 231.646 764.412C233.775 761.503 236.661 759.234 239.99 757.852V748.442H255.772V758.148C258.937 759.598 261.661 761.862 263.666 764.708C265.671 767.554 266.885 770.881 267.185 774.35L270.896 817.488H224.208L227.919 774.35Z" fill="#F2F2F2"/>
<path d="M764.636 568.373L759.942 566.396L756.721 542.861H713.832L710.341 566.3L706.141 568.4C705.94 568.501 705.778 568.666 705.683 568.87C705.588 569.073 705.564 569.303 705.616 569.522C705.668 569.74 705.791 569.935 705.968 570.075C706.144 570.214 706.362 570.29 706.587 570.29H764.249C764.48 570.29 764.703 570.21 764.881 570.064C765.059 569.919 765.182 569.716 765.227 569.49C765.273 569.264 765.239 569.03 765.131 568.826C765.023 568.623 764.849 568.463 764.636 568.373V568.373Z" fill="#E6E6E6"/>
<path d="M840.853 545.992H630.17C629.065 545.99 628.006 545.549 627.225 544.766C626.444 543.984 626.006 542.924 626.006 541.818V512.109H845.018V541.818C845.018 542.924 844.579 543.984 843.799 544.766C843.018 545.549 841.959 545.99 840.853 545.992V545.992Z" fill="#CCCCCC"/>
<path d="M845.238 526.15H625.813V399.032C625.815 397.698 626.346 396.419 627.289 395.475C628.232 394.532 629.511 394.001 630.845 394H840.206C841.54 394.001 842.819 394.532 843.763 395.475C844.706 396.419 845.237 397.698 845.238 399.032L845.238 526.15Z" fill="#3F3D56"/>
<path d="M832.133 516.924H638.919C637.89 516.923 636.904 516.514 636.177 515.787C635.45 515.06 635.041 514.074 635.04 513.045V407.105C635.041 406.077 635.45 405.091 636.177 404.364C636.904 403.636 637.89 403.227 638.919 403.226H832.133C833.161 403.227 834.147 403.636 834.874 404.364C835.602 405.091 836.011 406.077 836.012 407.105V513.045C836.011 514.074 835.602 515.06 834.874 515.787C834.147 516.514 833.161 516.923 832.133 516.924V516.924Z" fill="white"/>
<path d="M781.243 554.305C782.49 553.153 783.975 552.288 785.593 551.772C787.211 551.255 788.922 551.1 790.607 551.317C792.291 551.533 793.907 552.117 795.342 553.026C796.776 553.935 797.994 555.147 798.909 556.577L825.044 551.931L831.741 567.124L794.742 573.167C792.237 574.546 789.313 574.957 786.525 574.324C783.737 573.691 781.278 572.057 779.614 569.732C777.95 567.407 777.197 564.552 777.497 561.709C777.798 558.866 779.13 556.231 781.243 554.305V554.305Z" fill="#FFB6B6"/>
<path d="M805.44 573.704L832.685 573.365L836.134 573.318L891.567 572.62C891.567 572.62 906.62 558.259 919.727 543.473L917.89 530.185C916.098 517.144 909.629 505.198 899.686 496.57C880.913 509.114 870.026 533.944 870.026 533.944L835.656 542.165L832.218 542.987L810.862 548.09L805.44 573.704Z" fill="#0D6EFD"/>
<path d="M944.913 655.38H894.056C894.056 657.559 838.462 659.328 838.462 659.328C837.235 660.251 836.118 661.311 835.13 662.486C832.162 666.025 830.54 670.499 830.55 675.119V678.277C830.552 683.511 832.632 688.531 836.333 692.232C840.035 695.933 845.054 698.013 850.289 698.015H944.913C950.147 698.011 955.165 695.93 958.866 692.229C962.566 688.528 964.648 683.51 964.652 678.277V675.119C964.645 669.886 962.563 664.869 958.863 661.169C955.163 657.469 950.146 655.387 944.913 655.38V655.38Z" fill="#E4E4E4"/>
<path d="M907.93 697.231H887.402V815.721H907.93V697.231Z" fill="#E4E4E4"/>
<path d="M828.976 815C828.976 817.218 860.083 815.858 898.456 815.858C936.828 815.858 967.935 817.218 967.935 815C967.935 812.781 936.828 795.193 898.456 795.193C860.083 795.193 828.976 812.782 828.976 815Z" fill="#E4E4E4"/>
<path d="M815.186 801.461L799.908 801.46L792.64 742.531L815.188 742.532L815.186 801.461Z" fill="#FFB6B6"/>
<path d="M819.082 816.27L769.82 816.268V815.645C769.82 810.56 771.84 805.683 775.436 802.088C779.032 798.492 783.909 796.472 788.994 796.471H788.995L819.083 796.473L819.082 816.27Z" fill="#2F2E41"/>
<path d="M770.031 801.461L754.753 801.46L747.485 742.531L770.033 742.532L770.031 801.461Z" fill="#FFB6B6"/>
<path d="M773.927 816.27L724.665 816.268V815.645C724.665 810.56 726.685 805.683 730.281 802.088C733.877 798.492 738.754 796.472 743.839 796.471H743.84L773.928 796.473L773.927 816.27Z" fill="#2F2E41"/>
<path d="M906.887 462.2C921.557 462.2 933.451 450.307 933.451 435.636C933.451 420.965 921.557 409.072 906.887 409.072C892.216 409.072 880.323 420.965 880.323 435.636C880.323 450.307 892.216 462.2 906.887 462.2Z" fill="#FFB6B6"/>
<path d="M949.88 617.642C949.88 617.642 958.793 664.773 924.88 670.775C890.968 676.777 842.014 680.995 842.014 680.995L820.03 783.562L790.496 780.925C790.496 780.925 794.424 657.457 804.084 647.798C813.743 638.138 874.796 609.215 874.796 609.215L949.88 617.642Z" fill="#2F2E41"/>
<path d="M883.646 597.89L868.814 612.769C868.814 612.769 761.72 630.019 757.589 654.754C751.351 692.098 743.984 773.306 743.984 773.306L776.183 770.891L788.809 678.58L840.327 666.861L898.941 634.918L883.646 597.89Z" fill="#2F2E41"/>
<path d="M932.449 419.779C929.826 414.832 926.495 404.972 921.202 403.143C918.263 402.168 915.225 401.521 912.143 401.213L903.147 404.673L908.043 400.865C907.09 400.808 906.137 400.762 905.185 400.726L899.115 403.06L902.221 400.645C896.562 400.587 890.721 401.175 886.336 404.62C882.598 407.557 878.894 418.682 878.296 423.398C877.655 427.909 877.879 432.501 878.956 436.928L880.493 438.39C881.031 437.157 881.435 435.87 881.699 434.551C882.25 432.087 883.309 429.764 884.807 427.732C886.305 425.699 888.211 424 890.402 422.745L890.485 422.698C893.064 421.247 896.192 421.314 899.148 421.42L913.19 421.925C916.568 422.047 920.206 422.261 922.84 424.38C924.514 425.943 925.83 427.85 926.698 429.969C928.007 432.61 930.564 442.573 930.564 442.573C930.564 442.573 932.011 440.693 932.705 442.092C933.817 438.44 934.493 434.67 934.719 430.859C934.94 427.031 934.158 423.212 932.449 419.779V419.779Z" fill="#2F2E41"/>
<path d="M1025.36 447.302C1023.66 447.413 1022.01 447.895 1020.53 448.713C1019.04 449.531 1017.75 450.666 1016.74 452.036C1015.74 453.407 1015.05 454.981 1014.72 456.647C1014.4 458.313 1014.44 460.031 1014.84 461.68L993.483 477.437L999.893 492.754L1029.75 470.078C1032.47 469.21 1034.78 467.372 1036.24 464.914C1037.7 462.456 1038.21 459.548 1037.67 456.74C1037.13 453.933 1035.58 451.422 1033.31 449.682C1031.04 447.942 1028.21 447.095 1025.36 447.302V447.302Z" fill="#FFB6B6"/>
<path d="M1021.92 479.47L968.369 538.945C968.369 538.945 942.759 530.747 922.954 521.858L914.056 494.531C911.99 488.191 911.108 481.525 911.455 474.866C938.911 467.56 970.846 494.745 970.846 494.745L1010.93 463.346L1021.92 479.47Z" fill="#0D6EFD"/>
<path d="M896.964 622.035C887.41 618.735 877.531 615.322 866.875 614.041L866.418 613.986L866.544 613.543C877.575 574.812 874.821 550.036 869.416 512.82C868.266 504.792 869.743 496.608 873.627 489.489C877.51 482.37 883.592 476.698 890.964 473.319L891.03 473.289L921.464 471.355L921.533 471.351L943.668 477.861C946.852 478.804 949.639 480.766 951.601 483.444C953.564 486.123 954.595 489.372 954.535 492.692C954.295 504.931 954.804 518.596 955.342 533.063C956.55 565.519 957.799 599.08 950.711 620.855L950.674 620.969L950.58 621.043C944.064 626.35 935.902 629.217 927.499 629.151C917.564 629.151 907.425 625.649 896.964 622.035Z" fill="#0D6EFD"/>
<path d="M1117.91 818.837H141.415C141.04 818.837 140.68 818.687 140.415 818.422C140.149 818.157 140 817.797 140 817.421C140 817.046 140.149 816.686 140.415 816.421C140.68 816.155 141.04 816.006 141.415 816.006H1117.91C1118.29 816.006 1118.65 816.155 1118.91 816.421C1119.18 816.686 1119.33 817.046 1119.33 817.421C1119.33 817.797 1119.18 818.157 1118.91 818.422C1118.65 818.687 1118.29 818.837 1117.91 818.837Z" fill="#CCCCCC"/>
</g>
<g clip-path="url(#clip1_2_2)">
<path fill-rule="evenodd" clip-rule="evenodd" d="M510.137 35.2505C508.431 35.2189 507.223 35.4355 505.948 35.7154V35.9471H506.181C506.997 37.6193 508.434 38.6962 509.44 40.1368C510.213 41.7664 510.989 43.3936 511.764 45.0208C511.843 44.9433 511.922 44.8666 511.997 44.7891C513.44 43.7747 514.098 42.1506 514.092 39.6711C513.513 39.0623 513.427 38.3017 512.927 37.5766C512.265 36.6096 510.976 36.0633 510.137 35.2505ZM622.742 154.606C623.84 155.411 624.576 156.661 626 157.167V156.934C625.25 155.983 625.06 154.671 624.372 153.675C623.366 152.669 622.353 151.66 621.347 150.65C618.388 146.724 614.637 143.279 610.645 140.415C607.466 138.129 600.34 135.045 599.012 131.343C598.936 131.264 598.857 131.185 598.778 131.106C601.034 130.853 603.677 130.037 605.759 129.478C609.257 128.541 612.384 128.784 615.994 127.85C617.625 127.383 619.252 126.917 620.88 126.456V125.522C619.055 123.648 617.753 121.168 615.764 119.472C610.552 115.038 604.868 110.604 599.011 106.91C595.766 104.859 591.751 103.529 588.309 101.791C587.151 101.207 585.119 100.903 584.353 99.9295C582.548 97.6239 581.562 94.7024 580.167 92.0181C577.248 86.3941 574.377 80.2521 571.789 74.3348C570.027 70.3008 568.873 66.3222 566.673 62.7017C556.109 45.3331 544.735 34.8488 527.121 24.544C523.37 22.3531 518.859 21.4881 514.092 20.3575C511.534 20.2033 508.972 20.0459 506.414 19.8917C504.852 19.2394 503.228 17.3292 501.762 16.4017C495.925 12.7156 480.955 4.6959 476.635 15.2395C473.905 21.8929 480.712 28.3859 483.148 31.7589C484.858 34.1238 487.044 36.7765 488.268 39.4355C489.07 41.1837 489.207 42.9381 489.899 44.7875C491.59 49.3449 493.059 54.3024 495.246 58.5151C496.353 60.6452 497.573 62.8914 498.971 64.7962C499.829 65.9656 501.295 66.4803 501.525 68.2862C500.092 70.2968 500.009 73.4168 499.204 75.9636C495.567 87.4298 496.938 101.679 502.229 110.166C503.85 112.77 507.673 118.359 512.927 116.214C517.523 114.342 516.499 108.538 517.814 103.419C518.109 102.256 517.929 101.403 518.511 100.627V100.859C519.909 103.65 521.305 106.442 522.7 109.233C525.801 114.225 531.302 119.445 535.963 122.962C538.377 124.787 540.28 127.944 543.408 129.012V128.775H543.174C542.566 127.835 541.618 127.441 540.85 126.684C539.028 124.898 537.003 122.679 535.496 120.634C531.255 114.879 527.51 108.579 524.097 102.022C522.466 98.8906 521.049 95.4361 519.674 92.2505C519.145 91.0211 519.151 89.1638 518.046 88.5273C516.541 90.8613 514.324 92.751 513.16 95.5073C511.299 99.9145 511.059 105.289 510.369 110.862C509.961 111.009 510.142 110.909 509.901 111.094C506.66 110.314 505.522 106.978 504.319 104.115C501.274 96.8791 500.708 85.2255 503.388 76.8942C504.081 74.7396 507.219 67.9501 505.946 65.9592C505.34 63.9715 503.344 62.8242 502.227 61.3054C500.839 59.4283 499.458 56.9591 498.498 54.7903C496.009 49.1481 494.846 42.814 492.221 37.1093C490.966 34.3839 488.844 31.6229 487.102 29.1979C485.172 26.5128 483.012 24.5361 481.518 21.2865C480.986 20.1329 480.262 18.2867 481.052 17.0999C481.301 16.299 481.656 15.9653 482.449 15.7036C483.801 14.6631 487.556 16.0499 488.962 16.6342C492.691 18.1831 495.808 19.6593 498.968 21.7522C500.484 22.7579 502.018 24.7045 503.85 25.243H505.945C509.223 25.9949 512.893 25.4778 515.95 26.4069C521.359 28.0507 526.206 30.6077 530.607 33.3877C544.016 41.8533 554.981 53.9079 562.482 68.2862C563.688 70.6013 564.212 72.8104 565.273 75.267C567.416 80.2189 570.12 85.3132 572.253 90.1569C574.38 94.9863 576.455 99.8623 579.464 103.884C581.045 105.996 587.157 107.13 589.936 108.305C591.883 109.127 595.071 109.985 596.913 111.094C600.438 113.22 603.848 115.748 607.151 118.076C608.802 119.241 613.879 121.791 614.129 123.89C605.948 123.673 599.698 124.433 594.354 126.685C592.835 127.323 590.415 127.342 590.165 129.242C591 130.116 591.132 131.426 591.796 132.5C593.069 134.566 595.222 137.33 597.146 138.784C599.247 140.369 601.411 142.065 603.66 143.437C607.664 145.88 612.136 147.274 615.99 149.719C618.27 151.163 620.526 152.978 622.742 154.606Z" fill="#00758F"/>
</g>
<path d="M763.33 248.459C761.774 247.924 760.162 247.417 758.501 246.938C758.774 245.824 759.025 244.725 759.247 243.644C762.903 225.901 760.513 211.608 752.352 206.901C744.527 202.389 731.729 207.094 718.804 218.342C717.562 219.424 716.315 220.569 715.069 221.769C714.239 220.975 713.411 220.208 712.584 219.474C699.038 207.446 685.461 202.378 677.308 207.098C669.49 211.623 667.175 225.061 670.466 241.876C670.783 243.5 671.155 245.159 671.575 246.845C669.653 247.39 667.798 247.972 666.023 248.591C650.142 254.127 640 262.805 640 271.805C640 281.102 650.888 290.426 667.429 296.079C668.734 296.525 670.089 296.947 671.484 297.348C671.031 299.172 670.637 300.959 670.306 302.702C667.169 319.225 669.619 332.345 677.416 336.842C685.469 341.487 698.985 336.713 712.147 325.209C713.187 324.299 714.231 323.335 715.277 322.324C716.632 323.629 717.986 324.865 719.332 326.023C732.08 336.994 744.671 341.423 752.46 336.914C760.506 332.256 763.121 318.162 759.726 301.015C759.467 299.705 759.165 298.367 758.826 297.005C759.775 296.725 760.707 296.435 761.616 296.134C778.812 290.436 790 281.226 790 271.805C790 262.772 779.531 254.036 763.33 248.459ZM759.6 290.051C758.78 290.323 757.939 290.585 757.081 290.84C755.183 284.83 752.621 278.439 749.485 271.837C752.477 265.391 754.94 259.082 756.785 253.112C758.32 253.556 759.809 254.024 761.244 254.518C775.125 259.297 783.592 266.362 783.592 271.805C783.592 277.604 774.448 285.132 759.6 290.051ZM753.44 302.259C754.941 309.841 755.155 316.697 754.161 322.056C753.267 326.872 751.471 330.082 749.249 331.368C744.522 334.104 734.413 330.548 723.511 321.166C722.261 320.09 721.002 318.942 719.739 317.727C723.966 313.104 728.19 307.73 732.313 301.762C739.564 301.119 746.415 300.067 752.628 298.63C752.934 299.865 753.206 301.075 753.44 302.259ZM691.138 330.895C686.52 332.526 682.841 332.573 680.618 331.291C675.886 328.562 673.919 318.028 676.602 303.897C676.91 302.279 677.276 300.617 677.697 298.918C683.842 300.276 690.643 301.254 697.911 301.843C702.062 307.683 706.408 313.051 710.788 317.752C709.831 318.675 708.878 319.555 707.93 320.384C702.11 325.471 696.278 329.08 691.138 330.895ZM669.501 290.016C662.187 287.516 656.147 284.267 652.006 280.721C648.286 277.535 646.408 274.372 646.408 271.805C646.408 266.343 654.551 259.377 668.132 254.641C669.78 254.067 671.505 253.525 673.295 253.017C675.172 259.123 677.635 265.506 680.606 271.961C677.596 278.512 675.099 284.998 673.204 291.175C671.927 290.808 670.691 290.422 669.501 290.016ZM676.754 240.645C673.935 226.239 675.807 215.371 680.519 212.644C685.537 209.738 696.633 213.881 708.329 224.265C709.077 224.929 709.827 225.624 710.58 226.343C706.222 231.022 701.915 236.35 697.802 242.156C690.747 242.809 683.994 243.86 677.785 245.266C677.395 243.696 677.049 242.153 676.754 240.645ZM741.457 256.622C739.973 254.058 738.449 251.555 736.896 249.121C741.682 249.726 746.267 250.529 750.573 251.511C749.281 255.655 747.669 259.987 745.773 264.428C744.412 261.845 742.973 259.24 741.457 256.622ZM715.072 230.922C718.027 234.124 720.987 237.699 723.899 241.578C720.965 241.44 717.995 241.368 715 241.368C712.034 241.368 709.085 241.438 706.17 241.574C709.084 237.731 712.07 234.161 715.072 230.922ZM688.517 256.666C687.034 259.237 685.622 261.828 684.282 264.423C682.416 259.997 680.82 255.646 679.516 251.444C683.796 250.486 688.359 249.703 693.115 249.109C691.54 251.566 690.003 254.088 688.517 256.666V256.666ZM693.252 294.959C688.339 294.411 683.706 293.668 679.428 292.737C680.752 288.459 682.384 284.015 684.29 279.494C685.632 282.087 687.05 284.679 688.542 287.255H688.542C690.062 289.88 691.636 292.451 693.252 294.959ZM715.249 313.14C712.212 309.864 709.182 306.239 706.224 302.34C709.096 302.453 712.024 302.51 715 302.51C718.057 302.51 721.08 302.441 724.055 302.309C721.134 306.278 718.184 309.908 715.249 313.14ZM745.834 279.264C747.839 283.833 749.529 288.255 750.871 292.459C746.522 293.451 741.826 294.25 736.878 294.844C738.435 292.376 739.973 289.83 741.483 287.211C743.011 284.562 744.462 281.908 745.834 279.264ZM735.932 284.01C733.588 288.076 731.18 291.957 728.737 295.62C724.285 295.938 719.687 296.102 715 296.102C710.332 296.102 705.792 295.957 701.419 295.673C698.877 291.962 696.417 288.069 694.087 284.045H694.088C691.764 280.031 689.626 275.984 687.688 271.959C689.625 267.925 691.758 263.873 694.068 259.867L694.068 259.868C696.384 255.851 698.822 251.977 701.341 248.289C705.802 247.952 710.377 247.776 715 247.776H715C719.644 247.776 724.224 247.953 728.684 248.293C731.164 251.954 733.586 255.815 735.911 259.833C738.263 263.896 740.424 267.921 742.378 271.868C740.43 275.884 738.274 279.949 735.932 284.01ZM749.151 212.453C754.174 215.35 756.128 227.032 752.972 242.351C752.77 243.328 752.544 244.324 752.297 245.333C746.074 243.897 739.317 242.828 732.241 242.165C728.12 236.295 723.849 230.959 719.561 226.34C720.714 225.231 721.865 224.174 723.011 223.176C734.085 213.538 744.435 209.734 749.151 212.453ZM715 258.411C722.397 258.411 728.394 264.408 728.394 271.805C728.394 279.203 722.397 285.2 715 285.2C707.603 285.2 701.606 279.203 701.606 271.805C701.606 264.408 707.603 258.411 715 258.411Z" fill="#00D8FF"/>
<path d="M480.625 231.375H349.375V362.625H480.625V231.375Z" fill="#F5DE19"/>
<path d="M437.542 333.914C438.66 336.186 440.398 338.095 442.554 339.422C444.711 340.749 447.198 341.439 449.73 341.414C454.839 341.414 458.106 338.859 458.106 335.32C458.106 331.102 454.75 329.592 449.125 327.131L446.041 325.809C437.134 322.017 431.228 317.269 431.228 307.228C431.228 297.98 438.259 290.934 449.289 290.934C452.86 290.677 456.427 291.476 459.546 293.232C462.666 294.988 465.199 297.624 466.83 300.811L457.187 306.975C456.559 305.395 455.466 304.043 454.052 303.099C452.638 302.154 450.97 301.662 449.27 301.688C448.529 301.613 447.779 301.694 447.071 301.926C446.362 302.157 445.709 302.533 445.154 303.031C444.599 303.528 444.153 304.136 443.846 304.815C443.539 305.494 443.376 306.23 443.369 306.975C443.369 310.673 445.661 312.173 450.953 314.475L454.037 315.797C464.519 320.292 470.444 324.872 470.444 335.17C470.444 346.275 461.72 352.359 450.006 352.359C445.442 352.65 440.891 351.614 436.903 349.376C432.915 347.137 429.659 343.793 427.53 339.745L437.542 333.914ZM393.972 334.983C395.908 338.419 397.67 341.325 401.908 341.325C405.958 341.325 408.517 339.741 408.517 333.577V291.638H420.85V333.741C420.85 346.509 413.35 352.322 402.433 352.322C398.574 352.533 394.741 351.571 391.439 349.563C388.137 347.555 385.52 344.595 383.931 341.072L393.972 334.983Z" fill="black"/>
<path d="M142.094 512.766L129.789 378H261.918L249.906 512.766L196 528" fill="#264DE4"/>
<path d="M196 388.84V516.281L239.652 504.27L249.906 388.84" fill="#2965F1"/>
<path d="M154.398 405.539H196V421.945H155.863L154.398 405.539ZM157.328 438.938H196V455.637H158.793L157.328 438.938ZM159.672 463.84H176.078L177.25 477.023L196 482.004V499.289L161.723 489.914" fill="#EBEBEB"/>
<path d="M196 438.938V455.637H216.215L214.164 477.023L196 482.004V499.289L229.691 489.914L237.309 405.539H196V421.945H219.438L217.826 438.938H196Z" fill="white"/>
<path d="M190 222C203.8 222 215 210.8 215 197V172H190C176.2 172 165 183.2 165 197C165 210.8 176.2 222 190 222Z" fill="#0ACF83"/>
<path d="M165 147C165 133.2 176.2 122 190 122H215V172H190C176.2 172 165 160.8 165 147Z" fill="#A259FF"/>
<path d="M165 97C165 83.2 176.2 72 190 72H215V122H190C176.2 122 165 110.8 165 97Z" fill="#F24E1E"/>
<path d="M215 72H240C253.8 72 265 83.2 265 97C265 110.8 253.8 122 240 122H215V72Z" fill="#FF7262"/>
<path d="M265 147C265 160.8 253.8 172 240 172C226.2 172 215 160.8 215 147C215 133.2 226.2 122 240 122C253.8 122 265 133.2 265 147Z" fill="#1ABCFE"/>
<path d="M50.8008 743.766L38.7891 609H170.918L158.906 743.766L104.707 759" fill="#E34F26"/>
<path d="M105 747.281L148.652 735.27L158.906 619.84H105" fill="#EF652A"/>
<path d="M105 669.938H83.0273L81.5625 652.945H105V636.539H63.3984L67.793 686.637H105V669.938ZM104.707 713.004L86.25 708.023L85.0781 694.84H68.6719L70.7227 720.914L104.707 730.289V713.004Z" fill="#EBEBEB"/>
<path d="M104.707 669.938V686.637H125.215L123.164 708.023L104.707 713.004V730.289L138.691 720.914L143.379 669.938H104.707ZM104.707 636.539V652.945H144.844L146.309 636.539H104.707Z" fill="white"/>
<path d="M850.188 137.312L850.984 136.202L888.578 64.8859L888.658 64.1312L872.087 33.0062C871.784 32.4371 871.309 31.9777 870.731 31.6931C870.152 31.4085 869.498 31.3131 868.862 31.4204C868.226 31.5277 867.64 31.8323 867.187 32.291C866.733 32.7497 866.436 33.3394 866.336 33.9766L850.188 137.312Z" fill="#FFC24A"/>
<path d="M850.656 136.469L851.256 135.297L888.461 64.7219L871.933 33.475C871.66 32.9316 871.219 32.4911 870.675 32.2196C870.131 31.9481 869.514 31.8601 868.916 31.9688C868.318 32.0776 867.771 32.3772 867.357 32.8228C866.944 33.2684 866.686 33.8361 866.622 34.4406L850.656 136.469Z" fill="#FFA712"/>
<path d="M900.738 87.6719L913.075 75.0156L900.733 51.4797C900.461 50.9731 900.057 50.5498 899.564 50.2546C899.071 49.9595 898.507 49.8036 897.932 49.8036C897.357 49.8036 896.793 49.9595 896.3 50.2546C895.807 50.5498 895.403 50.9731 895.131 51.4797L888.536 64.0516V65.125L900.738 87.6719Z" fill="#F4BD62"/>
<path d="M900.517 87.1562L912.512 74.875L900.517 52C900.321 51.5048 899.985 51.0771 899.552 50.7682C899.118 50.4594 898.603 50.2826 898.071 50.2594C897.539 50.2361 897.012 50.3672 896.552 50.637C896.093 50.9067 895.722 51.3036 895.483 51.7797L888.855 64.5719L888.658 65.2234L900.517 87.1562Z" fill="#FFA50E"/>
<path d="M850.197 137.317L850.558 136.952L851.866 136.422L899.959 88.5063L900.569 86.8469L888.573 63.9813L850.197 137.317Z" fill="#F6820C"/>
<path d="M902.275 161.481L945.813 137.205L933.372 60.6531C933.283 60.1135 933.047 59.6089 932.689 59.1946C932.332 58.7804 931.868 58.4726 931.347 58.305C930.826 58.1374 930.27 58.1166 929.738 58.2447C929.206 58.3728 928.72 58.6449 928.333 59.0313L850.188 137.313L893.467 161.477C894.813 162.227 896.328 162.622 897.869 162.622C899.41 162.622 900.925 162.227 902.27 161.477" fill="#FDE068"/>
<path d="M945.414 137.003L933.077 61.0281C933.055 60.512 932.88 60.0139 932.575 59.5969C932.27 59.1799 931.849 58.8627 931.363 58.6856C930.878 58.5084 930.351 58.4792 929.849 58.6017C929.347 58.7241 928.893 58.9927 928.544 59.3734L850.656 137.167L893.458 161.073C894.793 161.818 896.296 162.209 897.824 162.209C899.353 162.209 900.856 161.818 902.191 161.073L945.414 137.003Z" fill="#FCCA3F"/>
<path d="M902.275 160.75C900.929 161.501 899.414 161.895 897.873 161.895C896.333 161.895 894.817 161.501 893.472 160.75L850.544 136.947L850.188 137.313L893.467 161.477C894.813 162.227 896.328 162.622 897.869 162.622C899.41 162.622 900.925 162.227 902.27 161.477L945.813 137.205L945.705 136.548L902.275 160.75Z" fill="#EEAB37"/>
<path d="M1059.93 304.968C1065.47 304.396 1069.67 299.624 1069.48 293.897C1069.29 288.17 1064.52 283.589 1058.79 283.589H1058.41C1052.49 283.78 1047.91 288.743 1048.1 294.66C1048.29 297.524 1049.44 300.005 1051.15 301.723C1044.66 314.513 1034.74 323.866 1019.85 331.693C1009.73 337.038 999.234 338.947 988.735 337.61C980.146 336.465 973.465 332.647 969.266 326.348C963.157 316.994 962.585 306.877 967.738 296.76C971.365 289.506 977.092 284.162 980.718 281.489C979.955 279.008 978.81 274.808 978.237 271.754C950.559 291.797 953.422 318.903 961.821 331.693C968.12 341.237 980.909 347.155 995.035 347.155C998.852 347.155 1002.67 346.773 1006.49 345.819C1030.92 341.046 1049.44 326.539 1059.93 304.968ZM1093.53 281.298C1079.02 264.309 1057.64 254.956 1033.21 254.956H1030.16C1028.44 251.52 1024.81 249.229 1020.8 249.229H1020.42C1014.5 249.42 1009.92 254.383 1010.11 260.301C1010.31 266.027 1015.08 270.609 1020.8 270.609H1021.19C1025.38 270.418 1029.01 267.745 1030.54 264.118H1033.97C1048.48 264.118 1062.22 268.318 1074.63 276.526C1084.18 282.825 1091.05 291.034 1094.87 300.96C1098.11 308.977 1097.92 316.803 1094.48 323.485C1089.14 333.602 1080.17 339.137 1068.33 339.137C1060.7 339.137 1053.44 336.847 1049.63 335.129C1047.53 337.038 1043.71 340.092 1041.04 342.001C1049.24 345.818 1057.64 347.918 1065.66 347.918C1083.99 347.918 1097.54 337.801 1102.69 327.684C1108.23 316.613 1107.85 297.524 1093.53 281.298ZM996.562 308.214C996.752 313.94 1001.52 318.521 1007.25 318.521H1007.63C1013.55 318.331 1018.13 313.367 1017.94 307.45C1017.75 301.723 1012.98 297.142 1007.25 297.142H1006.87C1006.49 297.142 1005.91 297.142 1005.53 297.333C997.707 284.352 994.462 270.227 995.607 254.956C996.371 243.502 1000.19 233.576 1006.87 225.368C1012.4 218.305 1023.09 214.869 1030.35 214.678C1050.58 214.296 1059.17 239.494 1059.74 249.611C1062.22 250.183 1066.42 251.52 1069.29 252.474C1067 221.55 1047.91 205.516 1029.58 205.516C1012.4 205.516 996.562 217.923 990.262 236.249C981.482 260.682 987.208 284.162 997.898 302.678C996.943 304.014 996.371 306.114 996.562 308.214Z" fill="#764ABC"/>
<defs>
<clipPath id="clip0_2_2">
<rect width="979.327" height="424.837" fill="white" transform="translate(140 394)"/>
</clipPath>
<clipPath id="clip1_2_2">
<rect width="150" height="150" fill="white" transform="translate(476 10)"/>
</clipPath>
</defs>
</svg>
